Eur_Bold.ufo
<glyph name="parenleft" format="2">
  <advance width="376"/>
  <unicode hex="0028"/>
  <guideline x="57" y="384" angle="0" identifier="PQFQAkt5DP"/>
  <outline>
    <contour>
      <point x="70" y="434" type="move"/>
    </contour>
    <contour>
      <point x="306" y="-97" type="line"/>
      <point x="197" y="-60"/>
      <point x="132" y="35"/>
      <point x="132" y="154" type="curve"/>
      <point x="132" y="434" type="line"/>
      <point x="133" y="552"/>
      <point x="196" y="637"/>
      <point x="306" y="671" type="curve"/>
      <point x="306" y="804" type="line"/>
      <point x="151" y="769"/>
      <point x="70" y="641"/>
      <point x="70" y="434" type="curve"/>
      <point x="70" y="154" type="line"/>
      <point x="70" y="-55"/>
      <point x="153" y="-190"/>
      <point x="306" y="-231" type="curve"/>
    </contour>
  </outline>
</glyph>
<glyph name="five" format="2">
  <advance width="633"/>
  <unicode hex="0035"/>
  <outline>
    <contour>
      <point x="545" y="666" type="line"/>
      <point x="413" y="666" type="line"/>
      <point x="502" y="532" type="line"/>
      <point x="545" y="532" type="line"/>
    </contour>
    <contour>
      <point x="511" y="273" type="line"/>
      <point x="510" y="173"/>
      <point x="448" y="110"/>
      <point x="350" y="110" type="curve"/>
      <point x="299" y="110" type="line"/>
      <point x="196" y="110"/>
      <point x="146" y="156"/>
      <point x="110" y="281" type="curve"/>
      <point x="56" y="240" type="line"/>
      <point x="97" y="54"/>
      <point x="163" y="-13"/>
      <point x="306" y="-13" type="curve"/>
      <point x="347" y="-13" type="line"/>
      <point x="486" y="-13"/>
      <point x="576" y="97"/>
      <point x="577" y="267" type="curve"/>
      <point x="577" y="423"/>
      <point x="498" y="482"/>
      <point x="288" y="482" type="curve"/>
      <point x="184" y="482" type="line"/>
      <point x="184" y="639" type="line"/>
      <point x="545" y="639" type="line"/>
      <point x="545" y="737" type="line"/>
      <point x="99" y="737" type="line"/>
      <point x="99" y="381" type="line"/>
      <point x="233" y="381" type="line"/>
      <point x="443" y="381"/>
      <point x="511" y="357"/>
      <point x="511" y="282" type="curve"/>
    </contour>
  </outline>
</glyph>
<glyph name="eight" format="2">
  <advance width="602"/>
  <unicode hex="0038"/>
  <guideline x="334" y="541" angle="90" identifier="vgHIswft6k"/>
  <guideline x="669" y="35" angle="0" identifier="MJ8mWAbace"/>
  <guideline x="630" y="468" angle="0" identifier="C9Zh2yWFgi"/>
  <guideline x="382" y="556" angle="0" identifier="DXtCVeJS4W"/>
  <guideline x="426" y="310" angle="0" identifier="9e1dTEIRn1"/>
  <guideline x="269" y="221" angle="0" identifier="pv4tIkzBMU"/>
  <outline>
    <contour>
      <point x="482" y="220" type="curve"/>
      <point x="482" y="141"/>
      <point x="416" y="98"/>
      <point x="294" y="98" type="curve" smooth="yes"/>
      <point x="178" y="98"/>
      <point x="121" y="138"/>
      <point x="121" y="221" type="curve"/>
      <point x="121" y="293"/>
      <point x="184" y="334"/>
      <point x="295" y="334" type="curve"/>
      <point x="412" y="334"/>
      <point x="482" y="291"/>
    </contour>
    <contour>
      <point x="297" y="751" type="curve"/>
      <point x="295" y="751"/>
      <point x="294" y="751"/>
      <point x="292" y="751" type="curve" smooth="yes"/>
      <point x="157" y="751"/>
      <point x="74" y="671"/>
      <point x="74" y="541" type="curve" smooth="yes"/>
      <point x="74" y="411"/>
      <point x="154" y="339"/>
      <point x="297" y="339" type="curve" smooth="yes"/>
      <point x="437" y="339"/>
      <point x="524" y="417"/>
      <point x="524" y="542" type="curve"/>
      <point x="524" y="672"/>
      <point x="438" y="751"/>
    </contour>
    <contour>
      <point x="136" y="534" type="curve"/>
      <point x="136" y="606"/>
      <point x="194" y="646"/>
      <point x="299" y="646" type="curve" smooth="yes"/>
      <point x="402" y="646"/>
      <point x="464" y="606"/>
      <point x="464" y="538" type="curve" smooth="yes"/>
      <point x="464" y="537"/>
      <point x="464" y="537"/>
      <point x="464" y="536" type="curve"/>
      <point x="464" y="460"/>
      <point x="402" y="416"/>
      <point x="295" y="416" type="curve"/>
      <point x="197" y="416"/>
      <point x="136" y="462"/>
    </contour>
    <contour>
      <point x="297" y="-19" type="curve"/>
      <point x="298" y="-19"/>
      <point x="299" y="-19"/>
      <point x="300" y="-19" type="curve" smooth="yes"/>
      <point x="461" y="-19"/>
      <point x="547" y="58"/>
      <point x="547" y="203" type="curve" smooth="yes"/>
      <point x="547" y="342"/>
      <point x="460" y="416"/>
      <point x="296" y="416" type="curve" smooth="yes"/>
      <point x="145" y="416"/>
      <point x="55" y="334"/>
      <point x="55" y="195" type="curve"/>
      <point x="55" y="57"/>
      <point x="141" y="-19"/>
    </contour>
  </outline>
</glyph>
<glyph name="D" format="2">
  <advance width="763"/>
  <unicode hex="0044"/>
  <outline>
    <contour>
      <point x="718.0" y="376.0" type="curve" smooth="yes"/>
      <point x="718.0" y="577.0"/>
      <point x="575.0" y="751.0"/>
      <point x="410.0" y="751.0" type="curve" smooth="yes"/>
      <point x="65.0" y="751.0" type="line"/>
      <point x="65.0" y="651.0" type="line"/>
      <point x="109.0" y="651.0" type="line"/>
      <point x="142.0" y="626.0" type="line"/>
      <point x="142.0" y="143.0" type="line"/>
      <point x="105.0" y="105.0" type="line"/>
      <point x="66.0" y="105.0" type="line"/>
      <point x="66.0" y="0.0" type="line"/>
      <point x="416.0" y="0.0" type="line" smooth="yes"/>
      <point x="589.0" y="6.0"/>
      <point x="718.0" y="166.0"/>
    </contour>
    <contour>
      <point x="413.0" y="606.0" type="line" smooth="yes"/>
      <point x="535.0" y="605.0"/>
      <point x="633.0" y="503.0"/>
      <point x="633.0" y="378.0" type="curve" smooth="yes"/>
      <point x="633.0" y="247.0"/>
      <point x="537.0" y="139.0"/>
      <point x="418.0" y="138.0" type="curve" smooth="yes"/>
      <point x="254.0" y="138.0" type="line"/>
      <point x="254.0" y="606.0" type="line"/>
    </contour>
  </outline>
</glyph>
<glyph name="H" format="2">
  <advance width="855"/>
  <unicode hex="0048"/>
  <outline>
    <contour>
      <point x="641.0" y="389.0" type="line"/>
      <point x="206.0" y="389.0" type="line"/>
      <point x="206.0" y="498.0" type="line"/>
      <point x="641.0" y="498.0" type="line"/>
    </contour>
    <contour>
      <point x="536.0" y="0.0" type="line"/>
      <point x="536.0" y="105.0" type="line"/>
      <point x="790.0" y="103.0" type="line"/>
      <point x="790.0" y="0.0" type="line"/>
    </contour>
    <contour>
      <point x="715.0" y="135.0" type="line"/>
      <point x="790.0" y="73.0" type="line"/>
      <point x="535.0" y="73.0" type="line"/>
      <point x="608.0" y="135.0" type="line"/>
    </contour>
    <contour>
      <point x="55.0" y="0.0" type="line"/>
      <point x="55.0" y="105.0" type="line"/>
      <point x="319.0" y="105.0" type="line"/>
      <point x="319.0" y="0.0" type="line"/>
    </contour>
    <contour>
      <point x="246.0" y="135.0" type="line"/>
      <point x="319.0" y="72.0" type="line"/>
      <point x="66.0" y="72.0" type="line"/>
      <point x="140.0" y="135.0" type="line"/>
    </contour>
    <contour>
      <point x="246.0" y="113.0" type="line"/>
      <point x="140.0" y="113.0" type="line"/>
      <point x="140.0" y="637.0" type="line"/>
      <point x="246.0" y="637.0" type="line"/>
    </contour>
    <contour>
      <point x="319.0" y="750.0" type="line"/>
      <point x="319.0" y="647.0" type="line"/>
      <point x="55.0" y="647.0" type="line"/>
      <point x="55.0" y="750.0" type="line"/>
    </contour>
    <contour>
      <point x="140.0" y="617.0" type="line"/>
      <point x="65.0" y="679.0" type="line"/>
      <point x="319.0" y="679.0" type="line"/>
      <point x="246.0" y="617.0" type="line"/>
    </contour>
    <contour>
      <point x="714.0" y="112.0" type="line"/>
      <point x="608.0" y="112.0" type="line"/>
      <point x="608.0" y="635.0" type="line"/>
      <point x="714.0" y="635.0" type="line"/>
    </contour>
    <contour>
      <point x="800.0" y="750.0" type="line"/>
      <point x="800.0" y="646.0" type="line"/>
      <point x="536.0" y="646.0" type="line"/>
      <point x="536.0" y="750.0" type="line"/>
    </contour>
    <contour>
      <point x="609.0" y="615.0" type="line"/>
      <point x="536.0" y="678.0" type="line"/>
      <point x="790.0" y="678.0" type="line"/>
      <point x="715.0" y="615.0" type="line"/>
    </contour>
  </outline>
</glyph>
<glyph name="I" format="2">
  <advance width="404"/>
  <unicode hex="0049"/>
  <outline>
    <contour>
      <point x="148.0" y="139.0" type="line"/>
      <point x="108.0" y="109.0" type="line"/>
      <point x="75.0" y="109.0" type="line"/>
      <point x="75.0" y="0.0" type="line"/>
      <point x="329.0" y="0.0" type="line"/>
      <point x="329.0" y="109.0" type="line"/>
      <point x="295.0" y="109.0" type="line"/>
      <point x="254.0" y="139.0" type="line"/>
      <point x="254.0" y="611.0" type="line"/>
      <point x="295.0" y="641.0" type="line"/>
      <point x="329.0" y="641.0" type="line"/>
      <point x="329.0" y="750.0" type="line"/>
      <point x="75.0" y="750.0" type="line"/>
      <point x="75.0" y="641.0" type="line"/>
      <point x="108.0" y="641.0" type="line"/>
      <point x="148.0" y="611.0" type="line"/>
    </contour>
  </outline>
</glyph>
<glyph name="O" format="2">
  <advance width="764"/>
  <unicode hex="004F"/>
  <outline>
    <contour>
      <point x="381.0" y="764.0" type="curve" smooth="yes"/>
      <point x="163.0" y="764.0"/>
      <point x="45.0" y="630.0"/>
      <point x="45.0" y="382.0" type="curve"/>
      <point x="45.0" y="131.0"/>
      <point x="168.0" y="-14.0"/>
      <point x="382.0" y="-14.0" type="curve" smooth="yes"/>
      <point x="586.0" y="-14.0"/>
      <point x="719.0" y="142.0"/>
      <point x="719.0" y="382.0" type="curve"/>
      <point x="719.0" y="618.0"/>
      <point x="590.0" y="764.0"/>
    </contour>
    <contour>
      <point x="370.0" y="143.0" type="curve" smooth="yes"/>
      <point x="223.0" y="143.0"/>
      <point x="124.0" y="235.0"/>
      <point x="124.0" y="372.0" type="curve"/>
      <point x="124.0" y="511.0"/>
      <point x="237.0" y="608.0"/>
      <point x="381.0" y="608.0" type="curve" smooth="yes"/>
      <point x="526.0" y="608.0"/>
      <point x="635.0" y="516.0"/>
      <point x="637.0" y="381.0" type="curve"/>
      <point x="637.0" y="242.0"/>
      <point x="514.0" y="143.0"/>
    </contour>
  </outline>
</glyph>
<glyph name="Q" format="2">
  <advance width="796"/>
  <unicode hex="0051"/>
  <outline>
    <contour>
      <point x="635.0" y="380.0" type="curve"/>
      <point x="635.0" y="242.0"/>
      <point x="523.0" y="143.0"/>
      <point x="379.0" y="143.0" type="curve" smooth="yes"/>
      <point x="232.0" y="143.0"/>
      <point x="123.0" y="235.0"/>
      <point x="123.0" y="372.0" type="curve"/>
      <point x="123.0" y="510.0"/>
      <point x="237.0" y="608.0"/>
      <point x="381.0" y="608.0" type="curve" smooth="yes"/>
      <point x="527.0" y="608.0"/>
      <point x="635.0" y="516.0"/>
    </contour>
    <contour>
      <point x="719.0" y="382.0" type="move"/>
      <point x="719.0" y="618.0"/>
      <point x="590.0" y="764.0"/>
      <point x="381.0" y="764.0" type="curve" smooth="yes"/>
      <point x="163.0" y="764.0"/>
      <point x="45.0" y="630.0"/>
      <point x="45.0" y="382.0" type="curve"/>
      <point x="45.0" y="131.0"/>
      <point x="168.0" y="-14.0"/>
      <point x="382.0" y="-14.0" type="curve" smooth="yes"/>
      <point x="586.0" y="-14.0"/>
      <point x="719.0" y="142.0"/>
      <point x="719.0" y="382.0" type="curve"/>
    </contour>
    <contour>
      <point x="671.0" y="-2.0" type="line"/>
      <point x="802.0" y="-2.0" type="line"/>
      <point x="802.0" y="121.0" type="line"/>
      <point x="671.0" y="121.0" type="line"/>
    </contour>
    <contour>
      <point x="671.0" y="-2.0" type="curve"/>
      <point x="739.0" y="83.0" type="line"/>
      <point x="612.0" y="182.0"/>
      <point x="535.0" y="346.0"/>
      <point x="409.0" y="397.0" type="curve"/>
      <point x="362.0" y="423.0"/>
      <point x="304.0" y="436.0"/>
      <point x="232.0" y="436.0" type="curve"/>
      <point x="148.0" y="436.0"/>
      <point x="116.0" y="422.0"/>
      <point x="79.0" y="409.0" type="curve"/>
      <point x="79.0" y="321.0" type="line"/>
      <point x="114.0" y="336.0"/>
      <point x="147.0" y="330.0"/>
      <point x="227.0" y="330.0" type="curve"/>
      <point x="289.0" y="330.0"/>
      <point x="347.0" y="317.0"/>
      <point x="382.0" y="294.0" type="curve"/>
      <point x="492.0" y="231.0"/>
      <point x="556.0" y="98.0"/>
    </contour>
  </outline>
</glyph>
<glyph name="R" format="2">
  <advance width="711"/>
  <unicode hex="0052"/>
  <outline>
    <contour>
      <point x="345" y="750" type="line"/>
      <point x="370" y="632" type="line"/>
      <point x="234" y="632" type="line"/>
      <point x="234" y="112" type="line"/>
      <point x="142" y="112" type="line"/>
      <point x="142" y="646" type="line"/>
      <point x="109" y="671" type="line"/>
      <point x="65" y="671" type="line"/>
      <point x="65" y="750" type="line"/>
    </contour>
    <contour>
      <point x="345" y="750" type="line"/>
      <point x="511" y="744"/>
      <point x="590" y="674"/>
      <point x="590" y="533" type="curve" smooth="yes"/>
      <point x="590" y="390"/>
      <point x="470" y="329"/>
      <point x="188" y="329" type="curve"/>
      <point x="160" y="418" type="line"/>
      <point x="462" y="421"/>
      <point x="523" y="438"/>
      <point x="523" y="519" type="curve" smooth="yes"/>
      <point x="523" y="602"/>
      <point x="458" y="634"/>
      <point x="289" y="634" type="curve"/>
    </contour>
    <contour>
      <point x="62" y="0" type="line"/>
      <point x="62" y="86" type="line"/>
      <point x="316" y="86" type="line"/>
      <point x="316" y="0" type="line"/>
    </contour>
    <contour>
      <point x="231" y="116" type="line"/>
      <point x="316" y="54" type="line"/>
      <point x="61" y="54" type="line"/>
      <point x="144" y="116" type="line"/>
    </contour>
    <contour>
      <point x="559" y="-3" type="line"/>
      <point x="246" y="374" type="line"/>
      <point x="322" y="421" type="line"/>
      <point x="645" y="57" type="line"/>
    </contour>
    <contour>
      <point x="607" y="99" type="line"/>
      <point x="684" y="99" type="line"/>
      <point x="684" y="-3" type="line"/>
      <point x="559" y="-3" type="line"/>
    </contour>
  </outline>
</glyph>
<glyph name="U" format="2">
  <advance width="805"/>
  <unicode hex="0055"/>
  <outline>
    <contour>
      <point x="117" y="655" type="line"/>
      <point x="205" y="655" type="line"/>
    </contour>
    <contour>
      <point x="33" y="750" type="line"/>
      <point x="292" y="750" type="line"/>
      <point x="292" y="667" type="line"/>
      <point x="33" y="667" type="line"/>
    </contour>
    <contour>
      <point x="205" y="636" type="line"/>
      <point x="117" y="636" type="line"/>
      <point x="33" y="700" type="line"/>
      <point x="292" y="700" type="line"/>
    </contour>
    <contour>
      <point x="598" y="655" type="line"/>
      <point x="686" y="655" type="line"/>
    </contour>
    <contour>
      <point x="513" y="750" type="line"/>
      <point x="772" y="750" type="line"/>
      <point x="772" y="667" type="line"/>
      <point x="513" y="667" type="line"/>
    </contour>
    <contour>
      <point x="686" y="636" type="line"/>
      <point x="598" y="636" type="line"/>
      <point x="513" y="700" type="line"/>
      <point x="772" y="700" type="line"/>
    </contour>
    <contour>
      <point x="121" y="296" type="line"/>
      <point x="130" y="80"/>
      <point x="219" y="-17"/>
      <point x="408" y="-17" type="curve" smooth="yes"/>
      <point x="589" y="-17"/>
      <point x="686" y="93"/>
      <point x="686" y="296" type="curve"/>
    </contour>
    <contour>
      <point x="595" y="296" type="line"/>
      <point x="594" y="155"/>
      <point x="551" y="113"/>
      <point x="411" y="113" type="curve" smooth="yes"/>
      <point x="263" y="113"/>
      <point x="211" y="160"/>
      <point x="210" y="296" type="curve"/>
    </contour>
    <contour>
      <point x="595" y="296" type="line"/>
      <point x="595" y="670" type="line"/>
      <point x="686" y="674" type="line"/>
      <point x="686" y="296" type="line"/>
    </contour>
    <contour>
      <point x="121" y="296" type="line"/>
      <point x="121" y="640" type="line"/>
      <point x="212" y="644" type="line"/>
      <point x="210" y="296" type="line"/>
    </contour>
  </outline>
</glyph>
<glyph name="a" format="2">
  <advance width="577"/>
  <unicode hex="0061"/>
  <outline>
    <contour>
      <point x="302.0" y="-4.0" type="line"/>
      <point x="283.0" y="-7.0"/>
      <point x="263.0" y="-9.0"/>
      <point x="244.0" y="-9.0" type="curve" smooth="yes"/>
      <point x="120.0" y="-9.0"/>
      <point x="55.0" y="46.0"/>
      <point x="55.0" y="151.0" type="curve" smooth="yes"/>
      <point x="55.0" y="232.0"/>
      <point x="100.0" y="279.0"/>
      <point x="191.0" y="294.0" type="curve" smooth="yes"/>
      <point x="214.0" y="298.0"/>
      <point x="235.0" y="300.0"/>
      <point x="240.0" y="300.0" type="curve" smooth="yes"/>
      <point x="392.0" y="304.0" type="line"/>
      <point x="410.0" y="115.0" type="line"/>
    </contour>
    <contour>
      <point x="547.0" y="0.0" type="line"/>
      <point x="412.0" y="0.0" type="line"/>
      <point x="412.0" y="105.0" type="line"/>
      <point x="547.0" y="105.0" type="line"/>
    </contour>
    <contour>
      <point x="471.0" y="111.0" type="line"/>
      <point x="474.0" y="133.0" type="line"/>
      <point x="547.0" y="75.0" type="line"/>
      <point x="471.0" y="51.0" type="line"/>
    </contour>
    <contour>
      <point x="126.0" y="179.0" type="curve" smooth="yes"/>
      <point x="125.0" y="176.0"/>
      <point x="125.0" y="183.0"/>
      <point x="125.0" y="177.0" type="curve" smooth="yes"/>
      <point x="125.0" y="134.0"/>
      <point x="177.0" y="115.0"/>
      <point x="253.0" y="115.0" type="curve" smooth="yes"/>
      <point x="332.0" y="115.0"/>
      <point x="390.0" y="136.0"/>
      <point x="390.0" y="177.0" type="curve" smooth="yes"/>
      <point x="390.0" y="217.0" type="line"/>
      <point x="374.0" y="217.0"/>
      <point x="348.0" y="218.0"/>
      <point x="318.0" y="218.0" type="curve" smooth="yes"/>
      <point x="198.0" y="218.0"/>
      <point x="133.0" y="213.0"/>
    </contour>
    <contour>
      <point x="343.0" y="3.0" type="line"/>
      <point x="421.0" y="81.0" type="line"/>
    </contour>
    <contour>
      <point x="301.0" y="-5.0" type="line"/>
      <point x="422.0" y="127.0" type="line"/>
    </contour>
    <contour>
      <point x="93.0" y="415.0" type="line"/>
      <point x="171.0" y="489.0" type="line"/>
      <point x="205.0" y="509.0"/>
      <point x="246.0" y="519.0"/>
      <point x="287.0" y="519.0" type="curve" smooth="yes"/>
      <point x="389.0" y="519.0"/>
      <point x="483.0" y="456.0"/>
      <point x="483.0" y="378.0" type="curve" smooth="yes"/>
      <point x="483.0" y="0.0" type="line"/>
      <point x="390.0" y="0.0" type="line"/>
      <point x="390.0" y="344.0" type="line" smooth="yes"/>
      <point x="390.0" y="380.0"/>
      <point x="356.0" y="391.0"/>
      <point x="299.0" y="391.0" type="curve" smooth="yes"/>
      <point x="260.0" y="391.0"/>
      <point x="228.0" y="381.0"/>
      <point x="199.0" y="365.0" type="curve"/>
    </contour>
  </outline>
</glyph>
<glyph name="d" format="2">
  <advance width="686"/>
  <unicode hex="0064"/>
  <outline>
    <contour>
      <point x="512.0" y="1.0" type="line"/>
      <point x="512.0" y="99.0" type="line"/>
    </contour>
    <contour>
      <point x="489.0" y="151.0" type="line"/>
      <point x="519.0" y="76.0" type="line"/>
    </contour>
    <contour>
      <point x="468.0" y="252.0" type="curve" smooth="yes"/>
      <point x="468.0" y="327.0"/>
      <point x="390.0" y="380.0"/>
      <point x="294.0" y="380.0" type="curve" smooth="yes"/>
      <point x="198.0" y="380.0"/>
      <point x="119.0" y="326.0"/>
      <point x="119.0" y="251.0" type="curve" smooth="yes"/>
      <point x="119.0" y="173.0"/>
      <point x="198.0" y="119.0"/>
      <point x="294.0" y="119.0" type="curve" smooth="yes"/>
      <point x="389.0" y="119.0"/>
      <point x="468.0" y="174.0"/>
    </contour>
    <contour>
      <point x="45.0" y="242.0" type="curve" smooth="yes"/>
      <point x="45.0" y="398.0"/>
      <point x="151.0" y="509.0"/>
      <point x="300.0" y="509.0" type="curve" smooth="yes"/>
      <point x="334.0" y="509.0"/>
      <point x="391.0" y="492.0"/>
      <point x="419.0" y="474.0" type="curve"/>
      <point x="515.0" y="357.0" type="line"/>
      <point x="561.0" y="331.0"/>
      <point x="566.0" y="325.0"/>
      <point x="566.0" y="287.0" type="curve" smooth="yes"/>
      <point x="566.0" y="270.0"/>
      <point x="566.0" y="247.0"/>
      <point x="565.0" y="213.0" type="curve"/>
      <point x="551.0" y="158.0" type="line"/>
      <point x="400.0" y="14.0" type="line"/>
      <point x="374.0" y="0.0"/>
      <point x="344.0" y="-6.0"/>
      <point x="300.0" y="-6.0" type="curve" smooth="yes"/>
      <point x="143.0" y="-6.0"/>
      <point x="45.0" y="90.0"/>
    </contour>
    <contour>
      <point x="492.0" y="88.0" type="line"/>
      <point x="492.0" y="40.0" type="line"/>
    </contour>
    <contour>
      <point x="646.0" y="0.0" type="line"/>
      <point x="526.0" y="0.0" type="line"/>
      <point x="526.0" y="105.0" type="line"/>
      <point x="646.0" y="105.0" type="line"/>
    </contour>
    <contour>
      <point x="526.0" y="118.0" type="line"/>
      <point x="567.0" y="135.0" type="line"/>
      <point x="646.0" y="75.0" type="line"/>
      <point x="526.0" y="75.0" type="line"/>
    </contour>
    <contour>
      <point x="568.0" y="7.0" type="line"/>
      <point x="526.0" y="9.0" type="line"/>
    </contour>
    <contour>
      <point x="583.0" y="639.0" type="line"/>
      <point x="583.0" y="620.0" type="line"/>
      <point x="487.0" y="620.0" type="line"/>
      <point x="487.0" y="627.0" type="line"/>
      <point x="404.0" y="659.0" type="line"/>
      <point x="404.0" y="710.0" type="line"/>
      <point x="491.0" y="763.0" type="line"/>
      <point x="583.0" y="709.0" type="line"/>
    </contour>
    <contour>
      <point x="583.0" y="622.0" type="line"/>
      <point x="583.0" y="0.0" type="line"/>
      <point x="487.0" y="0.0" type="line"/>
      <point x="487.0" y="622.0" type="line"/>
    </contour>
    <contour>
      <point x="487.0" y="620.0" type="line"/>
      <point x="565.0" y="620.0" type="line"/>
    </contour>
  </outline>
</glyph>
<glyph name="j" format="2">
  <advance width="296"/>
  <unicode hex="006A"/>
  <outline>
    <contour>
      <point x="148.0" y="-31.0" type="line"/>
      <point x="148.0" y="372.0" type="line"/>
      <point x="63.0" y="420.0" type="line"/>
      <point x="63.0" y="472.0" type="line"/>
      <point x="155.0" y="517.0" type="line"/>
      <point x="245.0" y="477.0" type="line"/>
      <point x="245.0" y="-31.0" type="line"/>
    </contour>
    <contour>
      <point x="147.0" y="-31.0" type="line"/>
      <point x="147.0" y="-107.0"/>
      <point x="94.0" y="-140.0"/>
      <point x="1.0" y="-140.0" type="curve" smooth="yes"/>
      <point x="-27.0" y="-140.0"/>
      <point x="-51.0" y="-133.0"/>
      <point x="-71.0" y="-120.0" type="curve"/>
      <point x="-85.0" y="-240.0" type="line"/>
      <point x="-61.0" y="-252.0"/>
      <point x="-29.0" y="-259.0"/>
      <point x="-4.0" y="-259.0" type="curve"/>
      <point x="132.0" y="-259.0"/>
      <point x="247.0" y="-165.0"/>
      <point x="247.0" y="-31.0" type="curve"/>
    </contour>
    <contour>
      <point x="259.0" y="714.0" type="line"/>
      <point x="154.0" y="768.0" type="line"/>
      <point x="47.0" y="714.0" type="line"/>
      <point x="47.0" y="645.0" type="line"/>
      <point x="153.0" y="591.0" type="line"/>
      <point x="259.0" y="645.0" type="line"/>
    </contour>
    <contour>
      <point x="154.0" y="768.0" type="line"/>
      <point x="260.0" y="714.0" type="line"/>
    </contour>
    <contour>
      <point x="242.0" y="478.0" type="line"/>
    </contour>
    <contour>
      <point x="-70.0" y="-116.0" type="line"/>
      <point x="-84.0" y="-241.0" type="line"/>
    </contour>
  </outline>
</glyph>
<glyph name="k" format="2">
  <advance width="560"/>
  <unicode hex="006B"/>
  <guideline x="530" y="88" angle="0" identifier="SPaMn65LbM"/>
  <guideline x="530" y="88" angle="0" identifier="FdCSiOm9FP"/>
  <outline>
    <contour>
      <point x="284.0" y="-1.0" type="line"/>
      <point x="45.0" y="-1.0" type="line"/>
      <point x="45.0" y="107.0" type="line"/>
      <point x="284.0" y="107.0" type="line"/>
    </contour>
    <contour>
      <point x="130.0" y="137.0" type="line"/>
      <point x="205.0" y="137.0" type="line"/>
      <point x="284.0" y="77.0" type="line"/>
      <point x="45.0" y="77.0" type="line"/>
    </contour>
    <contour>
      <point x="129.0" y="9.0" type="line"/>
      <point x="129.0" y="656.0" type="line"/>
      <point x="45.0" y="686.0" type="line"/>
      <point x="45.0" y="732.0" type="line"/>
      <point x="137.0" y="780.0" type="line"/>
      <point x="224.0" y="750.0" type="line"/>
      <point x="224.0" y="9.0" type="line"/>
    </contour>
    <contour>
      <point x="429.0" y="0.0" type="line"/>
      <point x="200.0" y="281.0" type="line"/>
      <point x="287.0" y="324.0" type="line"/>
      <point x="506.0" y="43.0" type="line"/>
    </contour>
    <contour>
      <point x="536.0" y="0.0" type="line"/>
      <point x="429.0" y="0.0" type="line"/>
      <point x="429.0" y="117.0" type="line"/>
      <point x="536.0" y="117.0" type="line"/>
    </contour>
    <contour>
      <point x="512.0" y="134.0" type="line"/>
      <point x="430.0" y="57.0" type="line"/>
    </contour>
    <contour>
      <point x="520.0" y="501.0" type="line"/>
      <point x="520.0" y="408.0" type="line"/>
      <point x="385.0" y="408.0" type="line"/>
      <point x="291.0" y="408.0" type="line"/>
      <point x="291.0" y="501.0" type="line"/>
    </contour>
    <contour>
      <point x="460.0" y="427.0" type="line"/>
      <point x="197.0" y="208.0" type="line"/>
      <point x="197.0" y="303.0" type="line"/>
      <point x="352.0" y="427.0" type="line"/>
    </contour>
  </outline>
</glyph>
<glyph name="l" format="2">
  <advance width="330"/>
  <unicode hex="006C"/>
  <outline>
    <contour>
      <point x="295.0" y="-1.0" type="line"/>
      <point x="35.0" y="-1.0" type="line"/>
      <point x="35.0" y="106.0" type="line"/>
      <point x="295.0" y="106.0" type="line"/>
    </contour>
    <contour>
      <point x="130.0" y="137.0" type="line"/>
      <point x="205.0" y="137.0" type="line"/>
      <point x="284.0" y="77.0" type="line"/>
      <point x="45.0" y="77.0" type="line"/>
    </contour>
    <contour>
      <point x="121.0" y="9.0" type="line"/>
      <point x="121.0" y="656.0" type="line"/>
      <point x="37.0" y="686.0" type="line"/>
      <point x="37.0" y="732.0" type="line"/>
      <point x="129.0" y="780.0" type="line"/>
      <point x="216.0" y="748.0" type="line"/>
      <point x="216.0" y="9.0" type="line"/>
    </contour>
  </outline>
</glyph>
<glyph name="m" format="2">
  <advance width="936"/>
  <unicode hex="006D"/>
  <outline>
    <contour>
      <point x="602.0" y="0.0" type="line"/>
      <point x="369.0" y="0.0" type="line"/>
      <point x="369.0" y="107.0" type="line"/>
      <point x="602.0" y="107.0" type="line"/>
    </contour>
    <contour>
      <point x="446.0" y="135.0" type="line"/>
      <point x="524.0" y="135.0" type="line"/>
      <point x="602.0" y="77.0" type="line"/>
      <point x="369.0" y="77.0" type="line"/>
    </contour>
    <contour>
      <point x="302.0" y="-1.0" type="line"/>
      <point x="55.0" y="-1.0" type="line"/>
      <point x="55.0" y="107.0" type="line"/>
      <point x="302.0" y="107.0" type="line"/>
    </contour>
    <contour>
      <point x="140.0" y="137.0" type="line"/>
      <point x="215.0" y="137.0" type="line"/>
      <point x="302.0" y="77.0" type="line"/>
      <point x="55.0" y="77.0" type="line"/>
    </contour>
    <contour>
      <point x="139.0" y="-1.0" type="line"/>
      <point x="139.0" y="390.0" type="line"/>
      <point x="47.0" y="423.0" type="line"/>
      <point x="47.0" y="473.0" type="line"/>
      <point x="148.0" y="526.0" type="line"/>
      <point x="238.0" y="491.0" type="line"/>
      <point x="238.0" y="-1.0" type="line"/>
    </contour>
    <contour>
      <point x="211.0" y="386.0" type="line"/>
      <point x="298.0" y="481.0" type="line"/>
      <point x="325.0" y="493.0"/>
      <point x="364.0" y="502.0"/>
      <point x="393.0" y="502.0" type="curve" smooth="yes"/>
      <point x="477.0" y="502.0"/>
      <point x="534.0" y="448.0"/>
      <point x="534.0" y="333.0" type="curve" smooth="yes"/>
      <point x="534.0" y="0.0" type="line"/>
      <point x="447.0" y="0.0" type="line"/>
      <point x="447.0" y="294.0" type="line" smooth="yes"/>
      <point x="447.0" y="351.0"/>
      <point x="423.0" y="371.0"/>
      <point x="354.0" y="371.0" type="curve" smooth="yes"/>
      <point x="268.0" y="371.0"/>
      <point x="219.0" y="343.0"/>
      <point x="219.0" y="294.0" type="curve"/>
    </contour>
    <contour>
      <point x="896.0" y="0.0" type="line"/>
      <point x="663.0" y="0.0" type="line"/>
      <point x="663.0" y="107.0" type="line"/>
      <point x="896.0" y="107.0" type="line"/>
    </contour>
    <contour>
      <point x="730.0" y="135.0" type="line"/>
      <point x="818.0" y="135.0" type="line"/>
      <point x="896.0" y="77.0" type="line"/>
      <point x="663.0" y="77.0" type="line"/>
    </contour>
    <contour>
      <point x="505.0" y="386.0" type="line"/>
      <point x="592.0" y="481.0" type="line"/>
      <point x="619.0" y="493.0"/>
      <point x="658.0" y="502.0"/>
      <point x="687.0" y="502.0" type="curve" smooth="yes"/>
      <point x="771.0" y="502.0"/>
      <point x="818.0" y="438.0"/>
      <point x="818.0" y="323.0" type="curve" smooth="yes"/>
      <point x="818.0" y="0.0" type="line"/>
      <point x="731.0" y="0.0" type="line"/>
      <point x="731.0" y="294.0" type="line" smooth="yes"/>
      <point x="731.0" y="351.0"/>
      <point x="717.0" y="371.0"/>
      <point x="648.0" y="371.0" type="curve" smooth="yes"/>
      <point x="562.0" y="371.0"/>
      <point x="513.0" y="343.0"/>
      <point x="513.0" y="294.0" type="curve"/>
    </contour>
  </outline>
</glyph>
<glyph name="n" format="2">
  <advance width="681"/>
  <unicode hex="006E"/>
  <outline>
    <contour>
      <point x="641.0" y="0.0" type="line"/>
      <point x="408.0" y="0.0" type="line"/>
      <point x="408.0" y="108.0" type="line"/>
      <point x="641.0" y="108.0" type="line"/>
    </contour>
    <contour>
      <point x="465.0" y="136.0" type="line"/>
      <point x="563.0" y="136.0" type="line"/>
      <point x="641.0" y="78.0" type="line"/>
      <point x="408.0" y="78.0" type="line"/>
    </contour>
    <contour>
      <point x="302.0" y="-1.0" type="line"/>
      <point x="55.0" y="-1.0" type="line"/>
      <point x="55.0" y="108.0" type="line"/>
      <point x="302.0" y="108.0" type="line"/>
    </contour>
    <contour>
      <point x="140.0" y="138.0" type="line"/>
      <point x="223.0" y="138.0" type="line"/>
      <point x="302.0" y="78.0" type="line"/>
      <point x="55.0" y="78.0" type="line"/>
    </contour>
    <contour>
      <point x="137.0" y="0.0" type="line"/>
      <point x="137.0" y="391.0" type="line"/>
      <point x="45.0" y="424.0" type="line"/>
      <point x="45.0" y="475.0" type="line"/>
      <point x="144.0" y="528.0" type="line"/>
      <point x="238.0" y="493.0" type="line"/>
      <point x="238.0" y="0.0" type="line"/>
    </contour>
    <contour>
      <point x="217.0" y="379.0" type="line"/>
      <point x="297.0" y="481.0" type="line"/>
      <point x="326.0" y="493.0"/>
      <point x="370.0" y="502.0"/>
      <point x="404.0" y="502.0" type="curve" smooth="yes"/>
      <point x="501.0" y="502.0"/>
      <point x="563.0" y="438.0"/>
      <point x="563.0" y="323.0" type="curve" smooth="yes"/>
      <point x="563.0" y="0.0" type="line"/>
      <point x="467.0" y="0.0" type="line"/>
      <point x="467.0" y="294.0" type="line" smooth="yes"/>
      <point x="467.0" y="343.0"/>
      <point x="438.0" y="371.0"/>
      <point x="353.0" y="371.0" type="curve" smooth="yes"/>
      <point x="267.0" y="371.0"/>
      <point x="217.0" y="343.0"/>
      <point x="217.0" y="294.0" type="curve"/>
    </contour>
  </outline>
</glyph>
<glyph name="o" format="2">
  <advance width="572"/>
  <unicode hex="006F"/>
  <outline>
    <contour>
      <point x="532.0" y="256.0" type="curve" smooth="yes"/>
      <point x="532.0" y="391.0"/>
      <point x="419.0" y="506.0"/>
      <point x="286.0" y="506.0" type="curve" smooth="yes"/>
      <point x="143.0" y="506.0"/>
      <point x="40.0" y="401.0"/>
      <point x="40.0" y="256.0" type="curve" smooth="yes"/>
      <point x="40.0" y="86.0"/>
      <point x="127.0" y="-8.0"/>
      <point x="285.0" y="-8.0" type="curve" smooth="yes"/>
      <point x="435.0" y="-8.0"/>
      <point x="532.0" y="96.0"/>
    </contour>
    <contour>
      <point x="468.0" y="247.0" type="curve" smooth="yes"/>
      <point x="468.0" y="171.0"/>
      <point x="381.0" y="116.0"/>
      <point x="286.0" y="116.0" type="curve" smooth="yes"/>
      <point x="191.0" y="116.0"/>
      <point x="104.0" y="171.0"/>
      <point x="104.0" y="247.0" type="curve" smooth="yes"/>
      <point x="104.0" y="324.0"/>
      <point x="191.0" y="378.0"/>
      <point x="286.0" y="378.0" type="curve" smooth="yes"/>
      <point x="381.0" y="378.0"/>
      <point x="468.0" y="324.0"/>
    </contour>
  </outline>
</glyph>
<glyph name="p" format="2">
  <advance width="727"/>
  <unicode hex="0070"/>
  <outline>
    <contour>
      <point x="251.0" y="247.0" type="curve" smooth="yes"/>
      <point x="251.0" y="173.0"/>
      <point x="317.0" y="119.0"/>
      <point x="410.0" y="119.0" type="curve" smooth="yes"/>
      <point x="503.0" y="119.0"/>
      <point x="589.0" y="173.0"/>
      <point x="589.0" y="247.0" type="curve" smooth="yes"/>
      <point x="589.0" y="325.0"/>
      <point x="504.0" y="380.0"/>
      <point x="410.0" y="380.0" type="curve" smooth="yes"/>
      <point x="317.0" y="380.0"/>
      <point x="251.0" y="325.0"/>
    </contour>
    <contour>
      <point x="661.0" y="258.0" type="curve" smooth="yes"/>
      <point x="661.0" y="106.0"/>
      <point x="563.0" y="-6.0"/>
      <point x="430.0" y="-6.0" type="curve" smooth="yes"/>
      <point x="375.0" y="-6.0"/>
      <point x="336.0" y="1.0"/>
      <point x="324.0" y="12.0" type="curve"/>
      <point x="206.0" y="132.0" type="line"/>
      <point x="137.0" y="272.0" type="line"/>
      <point x="228.0" y="337.0" type="line"/>
      <point x="322.0" y="482.0" type="line"/>
      <point x="335.0" y="495.0"/>
      <point x="384.0" y="506.0"/>
      <point x="431.0" y="506.0" type="curve" smooth="yes"/>
      <point x="549.0" y="506.0"/>
      <point x="661.0" y="385.0"/>
    </contour>
    <contour>
      <point x="315.0" y="-258.0" type="line"/>
      <point x="43.0" y="-258.0" type="line"/>
      <point x="43.0" y="-146.0" type="line"/>
      <point x="315.0" y="-146.0" type="line"/>
    </contour>
    <contour>
      <point x="231.0" y="-114.0" type="line"/>
      <point x="308.0" y="-177.0" type="line"/>
      <point x="44.0" y="-177.0" type="line"/>
      <point x="131.0" y="-114.0" type="line"/>
    </contour>
    <contour>
      <point x="131.0" y="366.0" type="line"/>
      <point x="36.0" y="418.0" type="line"/>
      <point x="36.0" y="471.0" type="line"/>
      <point x="131.0" y="526.0" type="line"/>
    </contour>
    <contour>
      <point x="131.0" y="526.0" type="line"/>
      <point x="231.0" y="461.0" type="line"/>
      <point x="231.0" y="-258.0" type="line"/>
      <point x="131.0" y="-258.0" type="line"/>
      <point x="131.0" y="384.0" type="line"/>
    </contour>
  </outline>
</glyph>
<glyph name="q" format="2">
  <advance width="720"/>
  <unicode hex="0071"/>
  <guideline x="642" y="-10" angle="90" identifier="K0mSA3RSaf"/>
  <guideline x="642" y="-10" angle="90" identifier="Vf7Lm1uFS2"/>
  <outline>
    <contour>
      <point x="475.0" y="248.0" type="curve" smooth="yes"/>
      <point x="475.0" y="326.0"/>
      <point x="398.0" y="381.0"/>
      <point x="303.0" y="381.0" type="curve" smooth="yes"/>
      <point x="208.0" y="381.0"/>
      <point x="120.0" y="326.0"/>
      <point x="120.0" y="248.0" type="curve" smooth="yes"/>
      <point x="120.0" y="174.0"/>
      <point x="208.0" y="120.0"/>
      <point x="303.0" y="120.0" type="curve" smooth="yes"/>
      <point x="398.0" y="120.0"/>
      <point x="475.0" y="174.0"/>
    </contour>
    <contour>
      <point x="49.0" y="258.0" type="curve" smooth="yes"/>
      <point x="49.0" y="390.0"/>
      <point x="164.0" y="506.0"/>
      <point x="296.0" y="506.0" type="curve" smooth="yes"/>
      <point x="343.0" y="506.0"/>
      <point x="392.0" y="495.0"/>
      <point x="405.0" y="482.0" type="curve"/>
      <point x="496.0" y="353.0" type="line"/>
      <point x="632.0" y="269.0"/>
      <point x="561.0" y="329.0"/>
      <point x="561.0" y="298.0" type="curve" smooth="yes"/>
      <point x="561.0" y="291.0"/>
      <point x="561.0" y="283.0"/>
      <point x="561.0" y="272.0" type="curve" smooth="yes"/>
      <point x="561.0" y="257.0"/>
      <point x="561.0" y="245.0"/>
      <point x="561.0" y="234.0" type="curve" smooth="yes"/>
      <point x="561.0" y="165.0"/>
      <point x="561.0" y="165.0"/>
      <point x="500.0" y="132.0" type="curve"/>
      <point x="403.0" y="12.0" type="line"/>
      <point x="391.0" y="1.0"/>
      <point x="350.0" y="-6.0"/>
      <point x="297.0" y="-6.0" type="curve" smooth="yes"/>
      <point x="149.0" y="-6.0"/>
      <point x="49.0" y="101.0"/>
    </contour>
    <contour>
      <point x="502.0" y="-258.0" type="line"/>
    </contour>
    <contour>
      <point x="565.0" y="380.0" type="line"/>
      <point x="565.0" y="521.0" type="line"/>
      <point x="661.0" y="466.0" type="line"/>
      <point x="661.0" y="414.0" type="line"/>
    </contour>
    <contour>
      <point x="566.0" y="387.0" type="line"/>
      <point x="566.0" y="-258.0" type="line"/>
      <point x="466.0" y="-258.0" type="line"/>
      <point x="466.0" y="458.0" type="line"/>
      <point x="566.0" y="521.0" type="line"/>
    </contour>
    <contour>
      <point x="559.0" y="-258.0" type="line"/>
      <point x="559.0" y="-128.0" type="line"/>
      <point x="554.0" y="-120.0"/>
      <point x="550.0" y="-107.0"/>
      <point x="550.0" y="-97.0" type="curve" smooth="yes"/>
      <point x="550.0" y="-86.0"/>
      <point x="553.0" y="-78.0"/>
      <point x="559.0" y="-70.0" type="curve" smooth="yes"/>
      <point x="589.0" y="-31.0"/>
      <point x="623.0" y="-9.0"/>
      <point x="660.0" y="-6.0" type="curve"/>
      <point x="700.0" y="-98.0" type="line"/>
      <point x="674.0" y="-103.0"/>
      <point x="648.0" y="-118.0"/>
      <point x="629.0" y="-138.0" type="curve"/>
      <point x="624.0" y="-142.0"/>
      <point x="621.0" y="-145.0"/>
      <point x="617.0" y="-148.0" type="curve" smooth="yes"/>
      <point x="585.0" y="-181.0"/>
      <point x="566.0" y="-215.0"/>
      <point x="566.0" y="-239.0" type="curve"/>
    </contour>
  </outline>
</glyph>
<glyph name="x" format="2">
  <advance width="690"/>
  <unicode hex="0078"/>
  <outline>
    <contour>
      <point x="356" y="312" type="line"/>
      <point x="503" y="484" type="line"/>
      <point x="595" y="484" type="line"/>
      <point x="389" y="235" type="line"/>
      <point x="284" y="235" type="line"/>
      <point x="75" y="493" type="line"/>
      <point x="166" y="493" type="line"/>
      <point x="319" y="312" type="line"/>
    </contour>
    <contour>
      <point x="289" y="500" type="line"/>
      <point x="289" y="412" type="line"/>
      <point x="50" y="412" type="line"/>
      <point x="50" y="500" type="line"/>
    </contour>
    <contour>
      <point x="50" y="442" type="line"/>
      <point x="289" y="442" type="line"/>
    </contour>
    <contour>
      <point x="639" y="500" type="line"/>
      <point x="639" y="412" type="line"/>
      <point x="400" y="412" type="line"/>
      <point x="400" y="500" type="line"/>
    </contour>
    <contour>
      <point x="400" y="442" type="line"/>
      <point x="639" y="442" type="line"/>
    </contour>
    <contour>
      <point x="401" y="-1" type="line"/>
      <point x="401" y="87" type="line"/>
      <point x="640" y="87" type="line"/>
      <point x="640" y="-1" type="line"/>
    </contour>
    <contour>
      <point x="640" y="57" type="line"/>
      <point x="401" y="57" type="line"/>
    </contour>
    <contour>
      <point x="51" y="-1" type="line"/>
      <point x="51" y="87" type="line"/>
      <point x="290" y="87" type="line"/>
      <point x="290" y="-1" type="line"/>
    </contour>
    <contour>
      <point x="290" y="57" type="line"/>
      <point x="51" y="57" type="line"/>
    </contour>
    <contour>
      <point x="318" y="205" type="line"/>
      <point x="171" y="33" type="line"/>
      <point x="79" y="33" type="line"/>
      <point x="285" y="279" type="line"/>
      <point x="390" y="279" type="line"/>
      <point x="599" y="24" type="line"/>
      <point x="508" y="24" type="line"/>
      <point x="349" y="205" type="line"/>
    </contour>
  </outline>
</glyph>
<glyph name="f_i" format="2">
  <advance width="665"/>
  <guideline x="417" y="92" angle="0" identifier="LVh41JSSx4"/>
  <outline>
    <contour>
      <point x="318" y="0" type="line"/>
      <point x="318" y="92" type="line"/>
      <point x="51" y="92" type="line"/>
      <point x="51" y="0" type="line"/>
    </contour>
    <contour>
      <point x="215" y="123" type="line"/>
      <point x="136" y="123" type="line"/>
      <point x="53" y="61" type="line"/>
      <point x="297" y="61" type="line"/>
    </contour>
    <contour>
      <point x="132" y="566" type="line"/>
      <point x="132" y="0" type="line"/>
      <point x="216" y="0" type="line"/>
      <point x="216" y="584" type="line"/>
    </contour>
    <contour>
      <point x="457" y="684" type="line"/>
      <point x="378" y="759" type="line"/>
      <point x="358" y="762"/>
      <point x="339" y="763"/>
      <point x="326" y="763" type="curve"/>
      <point x="195" y="758"/>
      <point x="134" y="693"/>
      <point x="134" y="643" type="curve"/>
      <point x="133" y="621"/>
      <point x="131" y="568"/>
      <point x="132" y="546" type="curve"/>
      <point x="132" y="546"/>
      <point x="216" y="584"/>
      <point x="216" y="584" type="curve"/>
      <point x="216" y="642"/>
      <point x="260" y="661"/>
      <point x="330" y="661" type="curve" smooth="yes"/>
      <point x="335" y="661"/>
      <point x="340" y="661"/>
      <point x="346" y="661" type="curve"/>
      <point x="381" y="659"/>
      <point x="414" y="654"/>
      <point x="437" y="638" type="curve"/>
    </contour>
    <contour>
      <point x="420" y="380" type="line"/>
      <point x="420" y="471" type="line"/>
      <point x="50" y="471" type="line"/>
      <point x="50" y="380" type="line"/>
    </contour>
    <contour>
      <point x="378" y="759" type="move"/>
    </contour>
    <contour>
      <point x="141" y="520" type="line"/>
      <point x="89" y="467" type="line"/>
      <point x="141" y="467" type="line"/>
    </contour>
    <contour>
      <point x="635" y="-1" type="line"/>
      <point x="635" y="92" type="line"/>
      <point x="396" y="92" type="line"/>
      <point x="396" y="-1" type="line"/>
    </contour>
    <contour>
      <point x="491" y="122" type="line"/>
      <point x="406" y="74" type="line"/>
      <point x="635" y="74" type="line"/>
      <point x="557" y="122" type="line"/>
    </contour>
    <contour>
      <point x="490" y="-1" type="line"/>
      <point x="560" y="-1" type="line"/>
      <point x="560" y="474" type="line"/>
      <point x="496" y="510" type="line"/>
      <point x="413" y="470" type="line"/>
      <point x="413" y="380" type="line"/>
      <point x="490" y="380" type="line"/>
    </contour>
    <contour>
      <point x="589" y="706" type="line"/>
      <point x="503" y="751" type="line"/>
      <point x="415" y="706" type="line"/>
      <point x="415" y="649" type="line"/>
      <point x="502" y="604" type="line"/>
      <point x="589" y="649" type="line"/>
    </contour>
    <contour>
      <point x="503" y="751" type="line"/>
      <point x="590" y="706" type="line"/>
    </contour>
  </outline>
</glyph>
<glyph name="sectionsign" format="2">
  <advance width="665"/>
  <guideline x="350" y="344" angle="0" identifier="eZiJoLWi2p"/>
  <guideline x="115" y="371" angle="0" identifier="4GO1HQTlAV"/>
  <outline>
    <contour>
      <point x="50" y="18" type="line"/>
      <point x="50" y="-160"/>
      <point x="136" y="-237"/>
      <point x="337" y="-237" type="curve" smooth="yes"/>
      <point x="516" y="-237"/>
      <point x="607" y="-167"/>
      <point x="607" y="-26" type="curve" smooth="yes"/>
      <point x="607" y="103"/>
      <point x="421" y="158"/>
      <point x="292" y="161" type="curve" smooth="yes"/>
      <point x="241" y="162"/>
      <point x="164" y="189"/>
      <point x="164" y="240" type="curve"/>
      <point x="164" y="294"/>
      <point x="241" y="323"/>
      <point x="346" y="323" type="curve" smooth="yes"/>
      <point x="456" y="323"/>
      <point x="505" y="294"/>
      <point x="505" y="242" type="curve"/>
      <point x="509" y="281" type="line"/>
      <point x="510" y="291"/>
      <point x="561" y="222"/>
      <point x="561" y="240" type="curve" smooth="yes"/>
      <point x="561" y="389"/>
      <point x="488" y="412"/>
      <point x="337" y="412" type="curve"/>
      <point x="222" y="412"/>
      <point x="102" y="389"/>
      <point x="102" y="259" type="curve" smooth="yes"/>
      <point x="102" y="255"/>
      <point x="102" y="251"/>
      <point x="102" y="246" type="curve" smooth="yes"/>
      <point x="102" y="150"/>
      <point x="135" y="78"/>
      <point x="295" y="77" type="curve" smooth="yes"/>
      <point x="480" y="74"/>
      <point x="509" y="11"/>
      <point x="509" y="-39" type="curve" smooth="yes"/>
      <point x="509" y="-87"/>
      <point x="453" y="-114"/>
      <point x="344" y="-114" type="curve" smooth="yes"/>
      <point x="336" y="-114"/>
      <point x="330" y="-114"/>
      <point x="321" y="-114" type="curve" smooth="yes"/>
      <point x="202" y="-109"/>
      <point x="124" y="-48"/>
      <point x="124" y="42" type="curve"/>
    </contour>
    <contour>
      <point x="306" y="78" type="line"/>
      <point x="322" y="77"/>
      <point x="341" y="74"/>
      <point x="359" y="74" type="curve" smooth="yes"/>
      <point x="537" y="73"/>
      <point x="583" y="124"/>
      <point x="583" y="264" type="curve" smooth="yes"/>
      <point x="583" y="475"/>
      <point x="189" y="398"/>
      <point x="190" y="562" type="curve"/>
      <point x="191" y="611"/>
      <point x="245" y="634"/>
      <point x="350" y="634" type="curve" smooth="yes"/>
      <point x="462" y="634"/>
      <point x="541" y="575"/>
      <point x="542" y="494" type="curve"/>
      <point x="614" y="512" type="line"/>
      <point x="615" y="522"/>
      <point x="615" y="533"/>
      <point x="615" y="551" type="curve" smooth="yes"/>
      <point x="615" y="701"/>
      <point x="550" y="772"/>
      <point x="361" y="772" type="curve"/>
      <point x="177" y="772"/>
      <point x="99" y="715"/>
      <point x="99" y="579" type="curve" smooth="yes"/>
      <point x="99" y="574"/>
      <point x="99" y="571"/>
      <point x="99" y="566" type="curve" smooth="yes"/>
      <point x="99" y="470"/>
      <point x="180" y="377"/>
      <point x="317" y="377" type="curve" smooth="yes"/>
      <point x="500" y="377"/>
      <point x="505" y="294"/>
      <point x="505" y="240" type="curve" smooth="yes"/>
      <point x="505" y="192"/>
      <point x="457" y="159"/>
      <point x="365" y="161" type="curve" smooth="yes"/>
      <point x="358" y="161"/>
      <point x="269" y="161"/>
      <point x="262" y="161" type="curve"/>
    </contour>
  </outline>
</glyph>
